<?xml version="1.0" encoding="iso-8859-1"?>
<!-- Generator: Adobe Illustrator 19.0.0, SVG Export Plug-In . SVG Version: 6.00 Build 0)  -->
<svg version="1.1" id="Capa_1" xmlns="http://www.w3.org/2000/svg" xmlns:xlink="http://www.w3.org/1999/xlink" x="0px" y="0px"
	 viewBox="0 0 512 512" style="enable-background:new 0 0 512 512;" xml:space="preserve">
<path style="fill:#ECEFF1;" d="M463.68,327.68C474.374,338.343,480.267,352.9,480,368c0,35.346-28.654,64-64,64
	c-11.342-0.012-22.485-2.99-32.32-8.64c-3.803,41.163-38.341,72.65-79.68,72.64h-96c-41.339,0.01-75.877-31.477-79.68-72.64
	c-9.835,5.65-20.978,8.628-32.32,8.64c-35.346,0-64-28.654-64-64c-0.267-15.1,5.626-29.657,16.32-40.32
	c-39.608-35.033-43.316-95.541-8.284-135.149c8.328-9.415,18.428-17.098,29.724-22.611c-3.746-8.131-5.71-16.968-5.76-25.92
	c0.105-35.302,28.698-63.895,64-64h1.6c7.694-37.199,40.414-63.909,78.4-64h96c37.986,0.091,70.706,26.801,78.4,64h1.6
	c35.302,0.105,63.895,28.698,64,64c-0.05,8.952-2.014,17.789-5.76,25.92c47.521,23.192,67.243,80.516,44.051,128.036
	C480.778,309.252,473.095,319.352,463.68,327.68z"/>
<g>
	<path style="fill:#B0BEC5;" d="M69.792,185.92c-8.837-0.001-16-7.165-15.999-16.001c0-6.054,3.418-11.59,8.831-14.303
		C77.959,147.966,94.863,143.99,112,144c8.837,0,16,7.163,16,16s-7.163,16-16,16c-12.212-0.023-24.262,2.793-35.2,8.224
		C74.623,185.315,72.227,185.895,69.792,185.92z"/>
	<path style="fill:#B0BEC5;" d="M112,368c-27.402-0.043-53.838-10.13-74.304-28.352c-6.788-5.657-7.705-15.746-2.048-22.535
		s15.746-7.705,22.535-2.048c0.25,0.208,0.493,0.423,0.729,0.646C73.487,328.812,92.403,336.041,112,336c8.837,0,16,7.163,16,16
		S120.837,368,112,368z"/>
	<path style="fill:#B0BEC5;" d="M208,512c-8.837,0-16-7.163-16-16v-64c0-8.837,7.163-16,16-16s16,7.163,16,16v64
		C224,504.837,216.837,512,208,512z"/>
	<path style="fill:#B0BEC5;" d="M208,64c-8.837,0-16-7.163-16-16V16c0-8.837,7.163-16,16-16s16,7.163,16,16v32
		C224,56.837,216.837,64,208,64z"/>
	<path style="fill:#B0BEC5;" d="M208,512c-41.664-0.189-78.52-27.051-91.456-66.656c-6.701,1.785-13.609,2.678-20.544,2.656
		c-44.183,0-80-35.817-80-80c0.017-13.82,3.777-27.377,10.88-39.232C-13.312,281.75-7.778,211.051,39.24,170.859
		c3.513-3.003,7.208-5.785,11.064-8.331C48.777,156.47,48.003,150.247,48,144c0.057-39.999,29.591-73.835,69.216-79.296
		C130.653,26.036,167.064,0.085,208,0c8.837,0,16,7.163,16,16s-7.163,16-16,16c-30.417-0.006-56.637,21.397-62.72,51.2
		c-1.521,7.451-8.076,12.802-15.68,12.8c-26.731-0.655-48.932,20.484-49.587,47.216c-0.006,0.261-0.011,0.523-0.013,0.784
		c0.026,6.731,1.534,13.373,4.416,19.456c3.491,7.914,0.061,17.169-7.744,20.896C37.131,203.747,20.8,251.525,40.196,291.065
		c4.559,9.293,10.883,17.61,18.62,24.487c6.672,5.794,7.383,15.9,1.588,22.572c-0.492,0.566-1.022,1.097-1.588,1.588
		C51.639,347.357,47.755,357.517,48,368c0,26.51,21.49,48,48,48c8.559,0.043,16.979-2.164,24.416-6.4
		c7.685-4.362,17.451-1.669,21.813,6.016c1.138,2.005,1.829,4.232,2.027,6.528C147.494,454.937,175.047,479.946,208,480
		c8.837,0,16,7.163,16,16S216.837,512,208,512z"/>
	<path style="fill:#B0BEC5;" d="M304,512c-8.837,0-16-7.163-16-16s7.163-16,16-16c32.986-0.09,60.539-25.154,63.744-57.984
		c0.766-8.803,8.524-15.318,17.327-14.552c2.279,0.198,4.489,0.883,6.481,2.008c7.439,4.274,15.868,6.524,24.448,6.528
		c26.51,0,48-21.49,48-48c0.22-10.454-3.65-20.58-10.784-28.224c-6.672-5.794-7.383-15.9-1.588-22.572
		c0.492-0.566,1.022-1.097,1.588-1.588c32.919-29.257,35.888-79.661,6.631-112.58c-6.876-7.737-15.193-14.061-24.487-18.62
		c-7.77-3.726-11.193-12.936-7.744-20.832c2.853-6.137,4.348-12.817,4.384-19.584c0-26.51-21.49-48-48-48
		c-7.979,0.091-15.042-5.141-17.28-12.8C360.637,53.397,334.417,31.994,304,32c-8.837,0-16-7.163-16-16s7.163-16,16-16
		c41.019,0.082,77.489,26.125,90.88,64.896C434.43,70.325,463.924,104.08,464,144c0.009,6.248-0.765,12.472-2.304,18.528
		c51.62,34.082,65.837,103.556,31.755,155.176c-2.546,3.856-5.328,7.551-8.331,11.064C492.223,340.623,495.983,354.18,496,368
		c0,44.183-35.817,80-80,80c-6.935,0.022-13.843-0.871-20.544-2.656C382.52,484.949,345.664,511.811,304,512z"/>
	<path style="fill:#B0BEC5;" d="M442.24,185.92c-2.478-0.005-4.921-0.586-7.136-1.696C424.193,178.815,412.179,176,400,176
		c-8.837,0-16-7.163-16-16s7.163-16,16-16c17.146-0.003,34.059,3.974,49.408,11.616c7.9,3.959,11.094,13.573,7.135,21.473
		C453.83,182.502,448.294,185.92,442.24,185.92z"/>
	<path style="fill:#B0BEC5;" d="M400,368c-8.837,0-16-7.163-16-16s7.163-16,16-16c19.597,0.041,38.513-7.188,53.088-20.288
		c6.888-5.536,16.959-4.44,22.495,2.448c5.168,6.43,4.6,15.734-1.311,21.488C453.826,357.881,427.395,367.97,400,368z"/>
	<path style="fill:#B0BEC5;" d="M304,512c-8.837,0-16-7.163-16-16v-64c0-8.837,7.163-16,16-16s16,7.163,16,16v64
		C320,504.837,312.837,512,304,512z"/>
	<path style="fill:#B0BEC5;" d="M304,64c-8.837,0-16-7.163-16-16V16c0-8.837,7.163-16,16-16s16,7.163,16,16v32
		C320,56.837,312.837,64,304,64z"/>
</g>
<path d="M129.632,96c-1.075,0.004-2.147-0.103-3.2-0.32c-8.662-1.748-14.267-10.187-12.518-18.849
	c0.002-0.01,0.004-0.021,0.006-0.031C123.113,32.137,162.401,0.065,208,0c8.837,0,16,7.163,16,16s-7.163,16-16,16
	c-30.417-0.006-56.637,21.397-62.72,51.2C143.762,90.639,137.224,95.986,129.632,96z"/>
<path d="M69.76,185.92c-6.359-0.003-12.112-3.772-14.656-9.6C50.478,166.17,48.057,155.154,48,144c0-44.183,35.817-80,80-80
	c8.989-0.059,16.406,7.018,16.768,16c0.372,8.457-6.183,15.614-14.641,15.986c-0.176,0.008-0.352,0.012-0.527,0.014
	c-26.731-0.655-48.932,20.484-49.587,47.216c-0.006,0.261-0.011,0.523-0.013,0.784c0.055,6.748,1.561,13.405,4.416,19.52
	c3.53,8.094-0.165,17.518-8.256,21.056C74.144,185.467,71.964,185.925,69.76,185.92z"/>
<path d="M208,512c-49.564-0.188-90.912-37.923-95.616-87.264c-0.76-8.837,5.787-16.616,14.624-17.376s16.616,5.787,17.376,14.624
	C147.568,454.778,175.052,479.842,208,480c8.837,0,16,7.163,16,16S216.837,512,208,512z"/>
<path d="M96,448c-44.183,0-80-35.817-80-80c-0.265-19.74,7.646-38.711,21.856-52.416c6.522-5.962,16.643-5.508,22.605,1.014
	c5.962,6.522,5.508,16.643-1.015,22.605c-0.215,0.197-0.436,0.388-0.662,0.573C51.644,347.416,47.773,357.545,48,368
	c0,26.51,21.49,48,48,48c8.582-0.015,17.011-2.276,24.448-6.56c7.828-4.1,17.497-1.078,21.597,6.75
	c3.915,7.474,1.353,16.703-5.853,21.09C123.962,444.304,110.104,448,96,448z"/>
<path d="M112,368C50.144,368,0,317.856,0,256s50.144-112,112-112c8.837,0,16,7.163,16,16s-7.163,16-16,16c-44.183,0-80,35.817-80,80
	s35.817,80,80,80c8.837,0,16,7.163,16,16S120.837,368,112,368z"/>
<path d="M208,512c-8.837,0-16-7.163-16-16v-64c0-8.837,7.163-16,16-16s16,7.163,16,16v64C224,504.837,216.837,512,208,512z"/>
<path d="M208,64c-8.837,0-16-7.163-16-16V16c0-8.837,7.163-16,16-16s16,7.163,16,16v32C224,56.837,216.837,64,208,64z"/>
<path d="M382.368,96c-7.592-0.014-14.13-5.361-15.648-12.8C360.637,53.397,334.417,31.994,304,32c-8.837,0-16-7.163-16-16
	s7.163-16,16-16c45.599,0.065,84.887,32.137,94.08,76.8c1.748,8.659-3.853,17.097-12.512,18.848
	C384.516,95.876,383.444,95.994,382.368,96z"/>
<path d="M442.24,185.92c-2.204,0.005-4.384-0.453-6.4-1.344c-8.091-3.538-11.786-12.962-8.256-21.056
	c2.855-6.115,4.361-12.772,4.416-19.52c0-26.51-21.49-48-48-48c-8.989,0.059-16.406-7.018-16.768-16
	c-0.372-8.457,6.183-15.614,14.641-15.986c0.176-0.008,0.352-0.012,0.527-0.014h1.6c44.183,0,80,35.817,80,80
	c-0.057,11.154-2.478,22.17-7.104,32.32C454.352,182.148,448.599,185.917,442.24,185.92z"/>
<path d="M304,512c-8.837,0-16-7.163-16-16s7.163-16,16-16c32.997-0.092,60.555-25.174,63.744-58.016
	c0.894-8.731,8.557-15.176,17.312-14.56c8.8,0.762,15.317,8.512,14.56,17.312C394.912,474.077,353.564,511.813,304,512z"/>
<path d="M416,448c-14.104,0-27.962-3.696-40.192-10.72c-7.548-4.595-9.941-14.439-5.346-21.987
	c4.387-7.206,13.616-9.768,21.09-5.853c7.437,4.284,15.866,6.545,24.448,6.56c26.51,0,48-21.49,48-48
	c0.227-10.455-3.644-20.584-10.784-28.224c-6.839-5.596-7.846-15.677-2.249-22.515c5.596-6.839,15.677-7.846,22.515-2.249
	c0.226,0.185,0.447,0.376,0.662,0.573C488.354,329.289,496.265,348.26,496,368C496,412.183,460.183,448,416,448z"/>
<path d="M400,368c-8.837,0-16-7.163-16-16s7.163-16,16-16c44.183,0,80-35.817,80-80s-35.817-80-80-80c-8.837,0-16-7.163-16-16
	s7.163-16,16-16c61.856,0,112,50.144,112,112S461.856,368,400,368z"/>
<path d="M304,512c-8.837,0-16-7.163-16-16v-64c0-8.837,7.163-16,16-16s16,7.163,16,16v64C320,504.837,312.837,512,304,512z"/>
<path d="M304,64c-8.837,0-16-7.163-16-16V16c0-8.837,7.163-16,16-16s16,7.163,16,16v32C320,56.837,312.837,64,304,64z"/>
<g>
	<path style="fill:#00BCD4;" d="M240,320c-7.344-0.002-13.743-5.003-15.52-12.128L208,241.984l-16.48,65.888
		c-2.337,8.522-11.14,13.536-19.662,11.199c-8.244-2.261-13.255-10.603-11.378-18.943l32-128
		c3.265-8.571,12.861-12.873,21.432-9.608c4.426,1.686,7.922,5.182,9.608,9.608l32,128c2.138,8.574-3.079,17.258-11.652,19.396
		C242.603,319.84,241.304,320,240,320z"/>
	<path style="fill:#00BCD4;" d="M304,320c-8.837,0-16-7.163-16-16V176c0-8.837,7.163-16,16-16s16,7.163,16,16v128
		C320,312.837,312.837,320,304,320z"/>
	<path style="fill:#00BCD4;" d="M232,288h-48c-8.837,0-16-7.163-16-16s7.163-16,16-16h48c8.837,0,16,7.163,16,16
		S240.837,288,232,288z"/>
</g>
<g>
</g>
<g>
</g>
<g>
</g>
<g>
</g>
<g>
</g>
<g>
</g>
<g>
</g>
<g>
</g>
<g>
</g>
<g>
</g>
<g>
</g>
<g>
</g>
<g>
</g>
<g>
</g>
<g>
</g>
</svg>
